<svg width="256" height="256" viewBox="0 0 256 256" xmlns="http://www.w3.org/2000/svg">
  <!-- Background -->
  <rect width="256" height="256" fill="white"/>

  <!-- Main timetable icon -->
  <g transform="translate(38, 38)">
    <!-- Outer container -->
    <rect x="0" y="0" width="180" height="180" rx="12" fill="#41BDF5"/>

    <!-- Inner white grid -->
    <rect x="10" y="30" width="160" height="140" rx="6" fill="white"/>

    <!-- Header bar -->
    <rect x="10" y="10" width="160" height="20" rx="4" fill="white" opacity="0.9"/>
    <circle cx="25" cy="20" r="4" fill="#FF5722"/>
    <circle cx="40" cy="20" r="4" fill="#FFC107"/>
    <circle cx="55" cy="20" r="4" fill="#4CAF50"/>

    <!-- Grid lines -->
    <line x1="10" y1="70" x2="170" y2="70" stroke="#E0E0E0" stroke-width="2"/>
    <line x1="10" y1="110" x2="170" y2="110" stroke="#E0E0E0" stroke-width="2"/>
    <line x1="10" y1="150" x2="170" y2="150" stroke="#E0E0E0" stroke-width="2"/>

    <line x1="50" y1="30" x2="50" y2="170" stroke="#E0E0E0" stroke-width="2"/>
    <line x1="90" y1="30" x2="90" y2="170" stroke="#E0E0E0" stroke-width="2"/>
    <line x1="130" y1="30" x2="130" y2="170" stroke="#E0E0E0" stroke-width="2"/>

    <!-- Colored lesson blocks -->
    <rect x="15" y="35" width="30" height="30" rx="4" fill="#FF5722"/>
    <rect x="55" y="35" width="30" height="30" rx="4" fill="#4CAF50"/>
    <rect x="95" y="35" width="30" height="30" rx="4" fill="#2196F3"/>

    <rect x="15" y="75" width="30" height="30" rx="4" fill="#9C27B0"/>
    <rect x="95" y="75" width="30" height="30" rx="4" fill="#FFC107"/>
    <rect x="135" y="75" width="30" height="30" rx="4" fill="#00BCD4"/>

    <rect x="55" y="115" width="30" height="30" rx="4" fill="#FF5722"/>
    <rect x="135" y="115" width="30" height="30" rx="4" fill="#4CAF50"/>

    <rect x="15" y="155" width="30" height="30" rx="4" fill="#2196F3"/>
    <rect x="95" y="155" width="30" height="30" rx="4" fill="#9C27B0"/>

    <!-- Time indicators (small lines) -->
    <line x1="55" y1="42" x2="82" y2="42" stroke="white" stroke-width="2" opacity="0.8"/>
    <line x1="55" y1="50" x2="78" y2="50" stroke="white" stroke-width="1.5" opacity="0.6"/>

    <line x1="95" y1="42" x2="122" y2="42" stroke="white" stroke-width="2" opacity="0.8"/>
    <line x1="95" y1="50" x2="118" y2="50" stroke="white" stroke-width="1.5" opacity="0.6"/>
  </g>
</svg>
